<svg xmlns="http://www.w3.org/2000/svg"><symbol id="icon-spisk" viewBox="0 0 50.38999938964844 50"><title></title><path d="M16.19,6.25V28.44H30.81V6.25H16.19ZM28.81,26.38H18.13V8.31H28.81V26.38Z"></path><rect x="33.81" y="9.19" width="10.94" height="2.13"></rect><rect x="33.81" y="15.5" width="10.94" height="1.84"></rect><rect x="33.81" y="21.56" width="10.94" height="1.94"></rect><rect x="15.63" y="34.44" width="29.13" height="2"></rect><rect x="15.63" y="41.31" width="29.13" height="1.75"></rect><path d="M50,0H10.38V23.13H0V44.81A6.47,6.47,0,0,0,5.63,50H44.19A6.59,6.59,0,0,0,50,44.06h0C50.88,38.44,50,0,50,0ZM6,48a4.57,4.57,0,0,1-4.09-4V25h8.19l0.31,19.38S9.69,48.38,6,48Zm38.22,0H10.69a6,6,0,0,0,1.5-4.15V2.06H47.88V44.13S48.31,47.24,44.19,48Z"></path></symbol></svg>