<svg xmlns="http://www.w3.org/2000/svg"><symbol id="icon-case" viewBox="0 0 52 44.099998474121094"><title></title><path d="M35.79,7V3.31A4.11,4.11,0,0,0,32.38,0H17.54c-2.5.32-3.29,3.6-3.29,3.6V7H0V42.1H50V7H35.79ZM16.33,3.73A1.85,1.85,0,0,1,18,2H32a2.07,2.07,0,0,1,1.67,1.54V7H16.33V3.73ZM48,40.14H2v-23l6.63,8.67a4.64,4.64,0,0,0,2.67,1.46l10.63,0,0,0.92A2.83,2.83,0,0,0,25,30.81a2.83,2.83,0,0,0,3-2.58v-1l10.42,0a4.34,4.34,0,0,0,2.67-1.21l6.92-9v23ZM25,28.93c-1.15.13-1.1-1.37-1.1-1.37V24.31h2.17v3.58A1,1,0,0,1,25,28.93ZM48,13.81l-8.21,10.5s-0.08.58-1.29,0.92H28.13L28,22.35l-6.25,0,0.08,2.92H11.42a2.23,2.23,0,0,1-1.25-.71C9.38,23.81,2,13.81,2,13.81V9H48v4.83Z" transform="translate(1 1)"></path></symbol></svg>