<svg xmlns="http://www.w3.org/2000/svg"><symbol id="icon-list" viewBox="0 0 41.20000076293945 50"><title></title><polygon points="5.25 23.25 6.75 21.75 8.5 23.63 12.56 19.38 13.94 20.63 8.44 26.19 5.25 23.25"></polygon><polygon points="5.25 32 6.75 30.63 8.44 32.38 12.63 28.25 13.94 29.56 8.38 35.19 5.25 32"></polygon><polygon points="5.25 40.92 6.75 39.52 8.42 41.29 12.63 37.08 13.94 38.5 8.35 44.08 5.25 40.92"></polygon><rect x="16.79" y="22.58" width="18.38" height="2.04"></rect><rect x="16.79" y="31.46" width="18.38" height="2.08"></rect><rect x="16.79" y="40.38" width="18.38" height="2.03"></rect><path d="M31.92,8.73v-4H26.33S25.33,0,20.6,0s-5.68,4.75-5.68,4.75H9.17V8.67H0V50H41.2V8.73H31.92Zm-20.79-2h5.81A4,4,0,0,1,20.6,1.88s4,0.06,3.71,4.88h5.63v5.94H11.13V6.75ZM39.13,48H2V10.72H9.13v4.09H32V10.72h7.09V48Z"></path></symbol></svg>