<svg xmlns="http://www.w3.org/2000/svg"><symbol id="icon-circle" viewBox="0 0 49.970001220703125 47.689998626708984"><title></title><path d="M45.5,32.3c-7.19-3-10.69,2.94-10.69,2.94L16,26.43c0.81-1.94.06-5.06,0.06-5.06l18.81-8.75c4.75,6.38,10.56,2.88,10.56,2.88,6.38-3.06,4.13-10.06,4.13-10.06C46-1.95,39.63.36,39.63,0.36,31.19,3.8,34,10.74,34,10.74L15.25,19.55a9.32,9.32,0,0,0-4.31-3.25C4.68,14,1,19.8,1,19.8c-3.37,7.63,3.13,11.31,3.13,11.31,7,3.31,11.13-2.81,11.13-2.81l18.63,9c-1.56,4.63,2.69,8.75,2.69,8.75C46,51.18,49.25,42.8,49.25,42.8,52.19,36,45.5,32.3,45.5,32.3ZM41.8,2.06A6.14,6.14,0,1,1,35.66,8.2,6.14,6.14,0,0,1,41.8,2.06ZM8.2,30a6.14,6.14,0,1,1,6.14-6.14A6.14,6.14,0,0,1,8.2,30ZM41.8,45.86a6.26,6.26,0,1,1,6.26-6.26A6.26,6.26,0,0,1,41.8,45.86Z" transform="translate(-0.03 -0.02)"></path></symbol></svg>