<svg xmlns="http://www.w3.org/2000/svg"><symbol id="icon-plan" viewBox="0 0 49 50"><title></title><path d="M49,25c-0.56-6.81-7.56-6.5-7.56-6.5H32.63L19.88,0H11l8.56,19.13-8.5.38L5.63,10.06,0,9.94,3.44,20.31S0.69,21.19.63,25a4.89,4.89,0,0,0,2.81,4.88L0,39.94,5.56,40l5.13-9.44,8.88,0.56L11,50h8.75L32.44,31.69h9.75C49.25,30.44,49,25,49,25ZM14.06,2h4.69l11.5,16.56-8.37.38ZM2.88,12h1.5l4.31,8H5.78ZM4.44,38H2.88L5.5,30.25H8.69ZM18.69,48.06H14.06l7.69-16.81,8.5,0.44ZM41.13,29.81L4.56,28.19s-1.23.32-2.06-3.09A3.2,3.2,0,0,1,4.56,22l36.88-1.62s5.35,0.1,5.44,4.63S41.13,29.81,41.13,29.81Z"></path></symbol></svg>