<svg xmlns="http://www.w3.org/2000/svg"><symbol id="icon-cart" viewBox="0 0 49.47999954223633 46.66999816894531"><title></title><polygon points="29.56 5.38 29.56 21.68 34.17 17.14 35.54 18.43 28.61 25.64 21.5 18.47 22.88 17.05 27.58 21.8 27.67 5.38 29.56 5.38"></polygon><path d="M43.88,32.76l5.6-23.08-18.35.08v2H46.88l-4.54,19H14.79l-4.62-19H25.88l0-1.92H9.71l-2-8.29L0.46,0,0,2,6,3.22l6.87,28.42L9.71,39.89h4.92a4.86,4.86,0,0,0-.46,4,4.74,4.74,0,0,0,3,2.63,4.45,4.45,0,0,0,4-.87A4.37,4.37,0,0,0,22.67,42,4.85,4.85,0,0,0,22,39.89h7.5a5,5,0,0,0-.71,2.67,4.46,4.46,0,0,0,.83,2.21A4.52,4.52,0,0,0,33,46.66a4.41,4.41,0,0,0,3.92-6.77l4.08,0,0-2L12.67,37.8l2-5H43.88ZM33.2,39.88a2.4,2.4,0,1,1-2.4,2.4A2.4,2.4,0,0,1,33.2,39.88Zm-14.9,0a2.36,2.36,0,1,1-2.36,2.36A2.36,2.36,0,0,1,18.3,39.92Z" transform="translate(0 0)"></path></symbol></svg>