<svg xmlns="http://www.w3.org/2000/svg"><symbol id="wezom-logo" viewBox="0 0 57 21"><path d="M1.106,1.145c1.478-1.556,3.873-1.556,5.351,0l12.392,13.042 c1.477,1.555,1.477,4.076,0,5.632c-1.478,1.556-3.874,1.556-5.351,0L1.106,6.777C-0.371,5.222-0.371,2.7,1.106,1.145z"/><path d="M31.195,1.145c-1.478-1.556-3.874-1.556-5.351,0L13.453,14.188 c-1.478,1.555-1.478,4.076,0,5.632s3.873,1.556,5.351,0L31.195,6.777C32.672,5.222,32.672,2.7,31.195,1.145z"/><path d="M25.799,1.145c1.478-1.556,3.874-1.556,5.351,0l12.391,13.042 c1.478,1.555,1.478,4.076,0,5.632s-3.873,1.556-5.351,0L25.799,6.777C24.321,5.222,24.321,2.7,25.799,1.145z"/><path d="M55.887,1.145c-1.478-1.556-3.873-1.556-5.351,0L38.146,14.188 c-1.478,1.555-1.478,4.076,0,5.632s3.873,1.556,5.351,0L55.887,6.777C57.365,5.222,57.365,2.7,55.887,1.145z"/></symbol></svg>
