<svg xmlns="http://www.w3.org/2000/svg">	<symbol id="arrow-down" viewBox="0 0 100 100"><polygon points="50,77.6 0,27.8 6,22 50,65.9 94,22 100,27.8"></polygon></symbol>	<symbol id="arrow-left" viewBox="0 0 100 100"><polygon points="71.7,0 77.6,6 33.7,50 77.6,94 71.7,100 22,50"></polygon></symbol>	<symbol id="arrow-right" viewBox="0 0 100 100"><polygon points="77.6,50 27.8,100 22,94 65.9,50 22,6 27.8,0"></polygon></symbol>	<symbol id="arrow-up" viewBox="0 0 100 100"><polygon points="100,71.7 94,77.6 50,33.7 6,77.6 0,71.7 50,22"></polygon></symbol>	<symbol id="icon-arrow" viewBox="0 0 612 430.32000732421875"><title></title><path d="M412.61,6.81a21.7,21.7,0,0,0-30.84,30.53L538.16,193.73H22.09A21.49,21.49,0,0,0,.5,215.34a21.72,21.72,0,0,0,21.59,21.9H538.16L381.77,393.35c-8.34,8.63-8.34,22.52,0,30.84a21.61,21.61,0,0,0,30.84,0L606,230.78a21.24,21.24,0,0,0,0-30.53Z" transform="translate(-0.5 -0.34)"></path></symbol>	<symbol id="icon-cart" viewBox="0 0 49.47999954223633 46.66999816894531"><title></title><polygon points="29.56 5.38 29.56 21.68 34.17 17.14 35.54 18.43 28.61 25.64 21.5 18.47 22.88 17.05 27.58 21.8 27.67 5.38 29.56 5.38"></polygon><path d="M43.88,32.76l5.6-23.08-18.35.08v2H46.88l-4.54,19H14.79l-4.62-19H25.88l0-1.92H9.71l-2-8.29L0.46,0,0,2,6,3.22l6.87,28.42L9.71,39.89h4.92a4.86,4.86,0,0,0-.46,4,4.74,4.74,0,0,0,3,2.63,4.45,4.45,0,0,0,4-.87A4.37,4.37,0,0,0,22.67,42,4.85,4.85,0,0,0,22,39.89h7.5a5,5,0,0,0-.71,2.67,4.46,4.46,0,0,0,.83,2.21A4.52,4.52,0,0,0,33,46.66a4.41,4.41,0,0,0,3.92-6.77l4.08,0,0-2L12.67,37.8l2-5H43.88ZM33.2,39.88a2.4,2.4,0,1,1-2.4,2.4A2.4,2.4,0,0,1,33.2,39.88Zm-14.9,0a2.36,2.36,0,1,1-2.36,2.36A2.36,2.36,0,0,1,18.3,39.92Z" transform="translate(0 0)"></path></symbol>	<symbol id="icon-case" viewBox="0 0 52 44.099998474121094"><title></title><path d="M35.79,7V3.31A4.11,4.11,0,0,0,32.38,0H17.54c-2.5.32-3.29,3.6-3.29,3.6V7H0V42.1H50V7H35.79ZM16.33,3.73A1.85,1.85,0,0,1,18,2H32a2.07,2.07,0,0,1,1.67,1.54V7H16.33V3.73ZM48,40.14H2v-23l6.63,8.67a4.64,4.64,0,0,0,2.67,1.46l10.63,0,0,0.92A2.83,2.83,0,0,0,25,30.81a2.83,2.83,0,0,0,3-2.58v-1l10.42,0a4.34,4.34,0,0,0,2.67-1.21l6.92-9v23ZM25,28.93c-1.15.13-1.1-1.37-1.1-1.37V24.31h2.17v3.58A1,1,0,0,1,25,28.93ZM48,13.81l-8.21,10.5s-0.08.58-1.29,0.92H28.13L28,22.35l-6.25,0,0.08,2.92H11.42a2.23,2.23,0,0,1-1.25-.71C9.38,23.81,2,13.81,2,13.81V9H48v4.83Z" transform="translate(1 1)"></path></symbol>	<symbol id="icon-circle" viewBox="0 0 49.970001220703125 47.689998626708984"><title></title><path d="M45.5,32.3c-7.19-3-10.69,2.94-10.69,2.94L16,26.43c0.81-1.94.06-5.06,0.06-5.06l18.81-8.75c4.75,6.38,10.56,2.88,10.56,2.88,6.38-3.06,4.13-10.06,4.13-10.06C46-1.95,39.63.36,39.63,0.36,31.19,3.8,34,10.74,34,10.74L15.25,19.55a9.32,9.32,0,0,0-4.31-3.25C4.68,14,1,19.8,1,19.8c-3.37,7.63,3.13,11.31,3.13,11.31,7,3.31,11.13-2.81,11.13-2.81l18.63,9c-1.56,4.63,2.69,8.75,2.69,8.75C46,51.18,49.25,42.8,49.25,42.8,52.19,36,45.5,32.3,45.5,32.3ZM41.8,2.06A6.14,6.14,0,1,1,35.66,8.2,6.14,6.14,0,0,1,41.8,2.06ZM8.2,30a6.14,6.14,0,1,1,6.14-6.14A6.14,6.14,0,0,1,8.2,30ZM41.8,45.86a6.26,6.26,0,1,1,6.26-6.26A6.26,6.26,0,0,1,41.8,45.86Z" transform="translate(-0.03 -0.02)"></path></symbol>	<symbol id="icon-link" viewBox="0 0 66 66"><title></title><path d="M66,0V27H62V6.83L27.41,41.41l-2.83-2.83L59.17,4H39V0H66ZM54,61a1,1,0,0,1-1,1H5a1,1,0,0,1-1-1V13a1,1,0,0,1,1-1H37V8H5a5,5,0,0,0-5,5V61a5,5,0,0,0,5,5H53a5,5,0,0,0,5-5V29H54V61Z"></path></symbol>	<symbol id="icon-list" viewBox="0 0 41.20000076293945 50"><title></title><polygon points="5.25 23.25 6.75 21.75 8.5 23.63 12.56 19.38 13.94 20.63 8.44 26.19 5.25 23.25"></polygon><polygon points="5.25 32 6.75 30.63 8.44 32.38 12.63 28.25 13.94 29.56 8.38 35.19 5.25 32"></polygon><polygon points="5.25 40.92 6.75 39.52 8.42 41.29 12.63 37.08 13.94 38.5 8.35 44.08 5.25 40.92"></polygon><rect x="16.79" y="22.58" width="18.38" height="2.04"></rect><rect x="16.79" y="31.46" width="18.38" height="2.08"></rect><rect x="16.79" y="40.38" width="18.38" height="2.03"></rect><path d="M31.92,8.73v-4H26.33S25.33,0,20.6,0s-5.68,4.75-5.68,4.75H9.17V8.67H0V50H41.2V8.73H31.92Zm-20.79-2h5.81A4,4,0,0,1,20.6,1.88s4,0.06,3.71,4.88h5.63v5.94H11.13V6.75ZM39.13,48H2V10.72H9.13v4.09H32V10.72h7.09V48Z"></path></symbol>	<symbol id="icon-lists" viewBox="0 0 53.40999984741211 51.459999084472656"><title></title><path d="M26.71,0L0,15.46,26.71,30.83,53.41,15.46ZM6.13,15.27L26.71,3.52,47.38,15.27,26.75,27.4Z"></path><polygon points="2.31 27.02 3.75 24.52 26.7 37.65 49.44 24.52 51.13 26.96 26.75 41.02 2.31 27.02"></polygon><polygon points="2.31 37.33 3.81 34.77 26.7 47.96 49.56 34.77 51.13 37.4 26.75 51.46 2.31 37.33"></polygon></symbol>	<symbol id="icon-lock" viewBox="0 0 16.600000381469727 20.200000762939453"><title></title><path d="M13.35,8.62v-4C12.9,0,8.3,0,8.3,0A5.21,5.21,0,0,0,3.17,4.91V8.62H0V20.2H16.6V8.62H13.35Zm-8.12-4A2.9,2.9,0,0,1,8.3,1.95,3.15,3.15,0,0,1,11.44,4.6v4H5.23v-4Zm9.4,13.56H2v-7.6h12.6v7.6Z" transform="translate(0 0)"></path><rect x="7.35" y="13.41" width="2.04" height="1.98"></rect></symbol>	<symbol id="icon-plan" viewBox="0 0 49 50"><title></title><path d="M49,25c-0.56-6.81-7.56-6.5-7.56-6.5H32.63L19.88,0H11l8.56,19.13-8.5.38L5.63,10.06,0,9.94,3.44,20.31S0.69,21.19.63,25a4.89,4.89,0,0,0,2.81,4.88L0,39.94,5.56,40l5.13-9.44,8.88,0.56L11,50h8.75L32.44,31.69h9.75C49.25,30.44,49,25,49,25ZM14.06,2h4.69l11.5,16.56-8.37.38ZM2.88,12h1.5l4.31,8H5.78ZM4.44,38H2.88L5.5,30.25H8.69ZM18.69,48.06H14.06l7.69-16.81,8.5,0.44ZM41.13,29.81L4.56,28.19s-1.23.32-2.06-3.09A3.2,3.2,0,0,1,4.56,22l36.88-1.62s5.35,0.1,5.44,4.63S41.13,29.81,41.13,29.81Z"></path></symbol>	<symbol id="icon-skob" viewBox="0 0 53.65999984741211 37.16999816894531"><title></title><polygon points="18.52 0.72 20.71 2.82 5.02 18.59 20.71 34.26 18.71 36.45 0.71 18.59 18.52 0.72"></polygon><polygon points="33.02 2.95 48.77 18.59 33.02 34.26 35.08 36.45 52.95 18.59 35.02 0.72 33.02 2.95"></polygon></symbol>	<symbol id="icon-spisk" viewBox="0 0 50.38999938964844 50"><title></title><path d="M16.19,6.25V28.44H30.81V6.25H16.19ZM28.81,26.38H18.13V8.31H28.81V26.38Z"></path><rect x="33.81" y="9.19" width="10.94" height="2.13"></rect><rect x="33.81" y="15.5" width="10.94" height="1.84"></rect><rect x="33.81" y="21.56" width="10.94" height="1.94"></rect><rect x="15.63" y="34.44" width="29.13" height="2"></rect><rect x="15.63" y="41.31" width="29.13" height="1.75"></rect><path d="M50,0H10.38V23.13H0V44.81A6.47,6.47,0,0,0,5.63,50H44.19A6.59,6.59,0,0,0,50,44.06h0C50.88,38.44,50,0,50,0ZM6,48a4.57,4.57,0,0,1-4.09-4V25h8.19l0.31,19.38S9.69,48.38,6,48Zm38.22,0H10.69a6,6,0,0,0,1.5-4.15V2.06H47.88V44.13S48.31,47.24,44.19,48Z"></path></symbol>	<symbol id="icon_arrow_up" viewBox="0 0 658.5599975585938 800"><title></title><path d="M644.11,291.75a53.32,53.32,0,1,1-75.39,75.43L383.86,182V746.61a53.36,53.36,0,1,1-106.71,0V182L92.27,367.18a53.32,53.32,0,0,1-75.39-75.43L292.81,15.67a53.16,53.16,0,0,1,75.39,0Z" transform="translate(-1.22 0)"></path></symbol>	<symbol id="wezom-logo" viewBox="0 0 57 21"><path d="M1.106,1.145c1.478-1.556,3.873-1.556,5.351,0l12.392,13.042 c1.477,1.555,1.477,4.076,0,5.632c-1.478,1.556-3.874,1.556-5.351,0L1.106,6.777C-0.371,5.222-0.371,2.7,1.106,1.145z"/><path d="M31.195,1.145c-1.478-1.556-3.874-1.556-5.351,0L13.453,14.188 c-1.478,1.555-1.478,4.076,0,5.632s3.873,1.556,5.351,0L31.195,6.777C32.672,5.222,32.672,2.7,31.195,1.145z"/><path d="M25.799,1.145c1.478-1.556,3.874-1.556,5.351,0l12.391,13.042 c1.478,1.555,1.478,4.076,0,5.632s-3.873,1.556-5.351,0L25.799,6.777C24.321,5.222,24.321,2.7,25.799,1.145z"/><path d="M55.887,1.145c-1.478-1.556-3.873-1.556-5.351,0L38.146,14.188 c-1.478,1.555-1.478,4.076,0,5.632s3.873,1.556,5.351,0L55.887,6.777C57.365,5.222,57.365,2.7,55.887,1.145z"/></symbol>	</svg>